<svg width="25" height="25" viewBox="0 0 25 25" fill="none" xmlns="http://www.w3.org/2000/svg">
<path d="M19.7333 11.5749C19.278 7.9895 16.2083 5.20825 12.4999 5.20825C9.62909 5.20825 7.13533 6.88534 5.99679 9.53013C3.75929 10.1999 2.08325 12.3124 2.08325 14.5833C2.08325 17.351 4.25929 19.5989 6.98742 19.7614V19.7916H18.7395V19.7885L18.7499 19.7916C21.0478 19.7916 22.9166 17.9228 22.9166 15.6249C22.9153 14.6911 22.6011 13.7846 22.024 13.0504C21.4469 12.3162 20.6404 11.7967 19.7333 11.5749ZM8.33325 12.4999H11.4583V9.37492H13.5416V12.4999H16.6666L12.4999 17.7083L8.33325 12.4999Z" fill="#2A2A2A"/>
</svg>
