<svg width="14" height="14" viewBox="0 0 14 14" fill="none" xmlns="http://www.w3.org/2000/svg">
<g clip-path="url(#clip0_1849_1654)">
<path d="M7.00003 14.0001C10.6512 14.0001 13.6111 11.0402 13.6111 7.38894C13.6111 3.73773 10.6512 0.777832 7.00003 0.777832C3.34881 0.777832 0.388916 3.73773 0.388916 7.38894C0.388916 11.0402 3.34881 14.0001 7.00003 14.0001Z" fill="#F4900C"/>
<path d="M7.00003 13.2222C10.6512 13.2222 13.6111 10.2623 13.6111 6.61111C13.6111 2.9599 10.6512 0 7.00003 0C3.34881 0 0.388916 2.9599 0.388916 6.61111C0.388916 10.2623 3.34881 13.2222 7.00003 13.2222Z" fill="#FFCC4D"/>
<path d="M6.99999 12.4446C10.0069 12.4446 12.4444 10.007 12.4444 7.00011C12.4444 3.99322 10.0069 1.55566 6.99999 1.55566C3.9931 1.55566 1.55554 3.99322 1.55554 7.00011C1.55554 10.007 3.9931 12.4446 6.99999 12.4446Z" fill="#FFE8B6"/>
<path d="M6.99999 12.0556C10.0069 12.0556 12.4444 9.61808 12.4444 6.61119C12.4444 3.60431 10.0069 1.16675 6.99999 1.16675C3.9931 1.16675 1.55554 3.60431 1.55554 6.61119C1.55554 9.61808 3.9931 12.0556 6.99999 12.0556Z" fill="#FFAC33"/>
<path d="M3.71118 4.2217C3.71118 4.00975 3.91924 3.92497 3.91924 3.92497L6.9829 2.48608L10.0757 3.92497C10.0757 3.92497 10.2888 3.97242 10.2888 4.22325V4.47253H3.71118V4.2217Z" fill="#FFE8B6"/>
<path d="M10.0836 4.99187C10.0836 4.76476 9.88717 4.58081 9.64528 4.58081H4.328C4.08573 4.58081 3.91695 4.76476 3.91695 4.99187C3.91695 5.14626 3.99628 5.27925 4.12267 5.34964V5.60864H4.94478V5.40292H5.76689V5.60864H6.589V5.40292H7.41111V5.60864H8.23323V5.40292H9.05534V5.60864H9.87784V5.33914C10.0011 5.26603 10.0836 5.13809 10.0836 4.99187ZM10.6999 9.33342C10.6999 9.41521 10.6675 9.49365 10.6096 9.55149C10.5518 9.60932 10.4733 9.64181 10.3916 9.64181H3.60856C3.52677 9.64181 3.44833 9.60932 3.3905 9.55149C3.33266 9.49365 3.30017 9.41521 3.30017 9.33342C3.30017 9.25163 3.33266 9.17319 3.3905 9.11536C3.44833 9.05752 3.52677 9.02503 3.60856 9.02503H10.3919C10.5619 9.02503 10.6999 9.16309 10.6999 9.33342Z" fill="#F4900C"/>
<path d="M10.2888 4.74454C10.2888 4.7991 10.2671 4.85143 10.2286 4.89001C10.19 4.92859 10.1377 4.95026 10.0831 4.95026H3.91648C3.8641 4.94704 3.81493 4.92396 3.77898 4.88574C3.74304 4.84751 3.72302 4.79701 3.72302 4.74454C3.72302 4.69207 3.74304 4.64157 3.77898 4.60334C3.81493 4.56512 3.8641 4.54204 3.91648 4.53882L10.0831 4.53999C10.11 4.53988 10.1367 4.5451 10.1617 4.55532C10.1866 4.56555 10.2093 4.5806 10.2284 4.5996C10.2475 4.6186 10.2627 4.64118 10.273 4.66605C10.2834 4.69092 10.2888 4.71759 10.2888 4.74454ZM4.73898 4.98332H9.26137V5.44454H4.73898V4.98332Z" fill="#F4900C"/>
<path d="M4.94433 8.10012C4.94433 8.32723 4.82144 8.51118 4.67016 8.51118H4.39599C4.24472 8.51118 4.12183 8.32723 4.12183 8.10012V4.98356C4.12183 4.75645 4.24472 4.57251 4.39599 4.57251H4.67016C4.82144 4.57251 4.94433 4.75645 4.94433 4.98356V8.10012ZM9.87777 8.10012C9.87777 8.32723 9.75527 8.51118 9.60361 8.51118H9.32944C9.17816 8.51118 9.05527 8.32723 9.05527 8.10012V4.98356C9.05527 4.75645 9.17777 4.57251 9.32944 4.57251H9.60361C9.75488 4.57251 9.87777 4.75645 9.87777 4.98356V8.10012ZM6.58894 8.10012C6.58894 8.32723 6.46605 8.51118 6.31477 8.51118H6.0406C5.88933 8.51118 5.76644 8.32723 5.76644 8.10012V4.98356C5.76644 4.75645 5.88933 4.57251 6.0406 4.57251H6.31477C6.46605 4.57251 6.58894 4.75645 6.58894 4.98356V8.10012ZM8.23316 8.10012C8.23316 8.32723 8.11027 8.51118 7.95899 8.51118H7.68522C7.53394 8.51118 7.41105 8.32723 7.41105 8.10012V4.98356C7.41105 4.75645 7.53394 4.57251 7.68522 4.57251H7.95899C8.11027 4.57251 8.23316 4.75645 8.23316 4.98356V8.10012Z" fill="#FFD983"/>
<path d="M10.0835 8.30559C10.0835 8.5327 9.89954 8.71664 9.67243 8.71664H4.32793C4.21891 8.71664 4.11435 8.67334 4.03727 8.59625C3.96018 8.51916 3.91687 8.41461 3.91687 8.30559C3.91687 8.19657 3.96018 8.09202 4.03727 8.01493C4.11435 7.93784 4.21891 7.89453 4.32793 7.89453H9.67243C9.89915 7.89453 10.0835 8.07848 10.0835 8.30559Z" fill="#FFCC4D"/>
<path d="M10.4946 8.71648C10.4946 8.94359 10.3107 9.12753 10.0835 9.12753H3.91655C3.80753 9.12753 3.70298 9.08422 3.62589 9.00714C3.5488 8.93005 3.50549 8.82549 3.50549 8.71648C3.50549 8.60746 3.5488 8.5029 3.62589 8.42582C3.70298 8.34873 3.80753 8.30542 3.91655 8.30542H10.0832C10.3103 8.30542 10.4946 8.48936 10.4946 8.71648Z" fill="#FFD983"/>
<path d="M10.6999 9.02494C10.6999 9.10673 10.6675 9.18517 10.6096 9.24301C10.5518 9.30084 10.4733 9.33333 10.3916 9.33333H3.60856C3.56806 9.33333 3.52796 9.32535 3.49054 9.30986C3.45313 9.29436 3.41913 9.27164 3.3905 9.24301C3.36186 9.21437 3.33914 9.18037 3.32365 9.14296C3.30815 9.10554 3.30017 9.06544 3.30017 9.02494C3.30017 8.98444 3.30815 8.94434 3.32365 8.90693C3.33914 8.86951 3.36186 8.83551 3.3905 8.80688C3.41913 8.77824 3.45313 8.75553 3.49054 8.74003C3.52796 8.72453 3.56806 8.71655 3.60856 8.71655H10.3919C10.5619 8.71655 10.6999 8.85461 10.6999 9.02494Z" fill="#FFD983"/>
<path d="M10.0835 4.778C10.0835 4.55089 9.88709 4.36694 9.6452 4.36694H4.32793C4.08565 4.36694 3.91687 4.55089 3.91687 4.778C3.91687 4.93239 3.9962 5.06539 4.12259 5.13578V5.39478H4.9447V5.18905H5.76681V5.39478H6.58893V5.18905H7.41104V5.39478H8.23315V5.18905H9.05526V5.39478H9.87776V5.12528C10.001 5.05217 10.0835 4.92422 10.0835 4.778Z" fill="#FFCC4D"/>
<path d="M3.71118 4.45778C3.71118 4.24584 3.91924 4.16106 3.91924 4.16106L6.9829 2.72217L10.0757 4.16106C10.0757 4.16106 10.2888 4.2085 10.2888 4.45934V4.5725H3.71118V4.45778Z" fill="#FFD983"/>
<path d="M6.99996 3.24438C6.99996 3.24438 4.87857 4.24422 4.66701 4.33444C4.45507 4.42427 4.52584 4.57205 4.6674 4.57205H9.3224C9.54096 4.57205 9.48923 4.40522 9.31579 4.315C9.14234 4.22516 6.99996 3.24438 6.99996 3.24438Z" fill="#FFAC33"/>
<path d="M10.2888 4.57218C10.2888 4.62674 10.2671 4.67906 10.2286 4.71765C10.19 4.75623 10.1377 4.7779 10.0831 4.7779H3.91648C3.8641 4.77468 3.81493 4.7516 3.77898 4.71337C3.74304 4.67515 3.72302 4.62465 3.72302 4.57218C3.72302 4.5197 3.74304 4.46921 3.77898 4.43098C3.81493 4.39275 3.8641 4.36968 3.91648 4.36646L10.0831 4.36762C10.11 4.36752 10.1367 4.37273 10.1617 4.38296C10.1866 4.39319 10.2093 4.40824 10.2284 4.42724C10.2475 4.44624 10.2627 4.46882 10.273 4.49369C10.2834 4.51856 10.2888 4.54523 10.2888 4.57218Z" fill="#FFD983"/>
</g>
<defs>
<clipPath id="clip0_1849_1654">
<rect width="14" height="14" fill="white"/>
</clipPath>
</defs>
</svg>
