<svg width="18" height="4" viewBox="0 0 18 4" fill="none" xmlns="http://www.w3.org/2000/svg">
<path d="M2.125 2.9375C2.64277 2.9375 3.0625 2.51777 3.0625 2C3.0625 1.48223 2.64277 1.0625 2.125 1.0625C1.60723 1.0625 1.1875 1.48223 1.1875 2C1.1875 2.51777 1.60723 2.9375 2.125 2.9375Z" stroke="#2A2A2A" stroke-width="1.875" stroke-linecap="round" stroke-linejoin="round"/>
<path d="M9 2.9375C9.51777 2.9375 9.9375 2.51777 9.9375 2C9.9375 1.48223 9.51777 1.0625 9 1.0625C8.48223 1.0625 8.0625 1.48223 8.0625 2C8.0625 2.51777 8.48223 2.9375 9 2.9375Z" stroke="#2A2A2A" stroke-width="1.875" stroke-linecap="round" stroke-linejoin="round"/>
<path d="M15.875 2.9375C16.3928 2.9375 16.8125 2.51777 16.8125 2C16.8125 1.48223 16.3928 1.0625 15.875 1.0625C15.3572 1.0625 14.9375 1.48223 14.9375 2C14.9375 2.51777 15.3572 2.9375 15.875 2.9375Z" stroke="#2A2A2A" stroke-width="1.875" stroke-linecap="round" stroke-linejoin="round"/>
</svg>
