<svg width="25" height="25" viewBox="0 0 25 25" fill="none" xmlns="http://www.w3.org/2000/svg">
<circle cx="12.5" cy="12.5" r="12.5" fill="#FC3E03"/>
<g clip-path="url(#clip0_372_2785)">
<path d="M11.4584 18.75C11.4584 18.75 10.4167 18.75 10.4167 17.7083C10.4167 16.6667 11.4584 13.5417 15.6251 13.5417C19.7917 13.5417 20.8334 16.6667 20.8334 17.7083C20.8334 18.75 19.7917 18.75 19.7917 18.75H11.4584ZM15.6251 12.5C16.4539 12.5 17.2487 12.1708 17.8348 11.5847C18.4208 10.9987 18.7501 10.2038 18.7501 9.375C18.7501 8.5462 18.4208 7.75134 17.8348 7.16529C17.2487 6.57924 16.4539 6.25 15.6251 6.25C14.7963 6.25 14.0014 6.57924 13.4154 7.16529C12.8293 7.75134 12.5001 8.5462 12.5001 9.375C12.5001 10.2038 12.8293 10.9987 13.4154 11.5847C14.0014 12.1708 14.7963 12.5 15.6251 12.5Z" fill="white"/>
<path fill-rule="evenodd" clip-rule="evenodd" d="M9.60008 18.75C9.44566 18.4248 9.36865 18.0683 9.37508 17.7084C9.37508 16.2969 10.0834 14.8438 11.3917 13.8334C10.7387 13.6322 10.0584 13.5338 9.37508 13.5417C5.20841 13.5417 4.16675 16.6667 4.16675 17.7084C4.16675 18.75 5.20841 18.75 5.20841 18.75H9.60008Z" fill="white"/>
<path d="M8.85417 12.5001C9.54483 12.5001 10.2072 12.2257 10.6956 11.7373C11.184 11.249 11.4583 10.5866 11.4583 9.89591C11.4583 9.20525 11.184 8.54287 10.6956 8.05449C10.2072 7.56611 9.54483 7.29175 8.85417 7.29175C8.1635 7.29175 7.50112 7.56611 7.01274 8.05449C6.52437 8.54287 6.25 9.20525 6.25 9.89591C6.25 10.5866 6.52437 11.249 7.01274 11.7373C7.50112 12.2257 8.1635 12.5001 8.85417 12.5001Z" fill="white"/>
</g>
<defs>
<clipPath id="clip0_372_2785">
<rect width="16.6667" height="16.6667" fill="white" transform="translate(4.16675 4.16675)"/>
</clipPath>
</defs>
</svg>
