<svg width="25" height="25" viewBox="0 0 25 25" fill="none" xmlns="http://www.w3.org/2000/svg">
<g clip-path="url(#clip0_372_2782)">
<path fill-rule="evenodd" clip-rule="evenodd" d="M25 0H0V25H25V0ZM17.7083 16.1458C18.7156 16.1458 19.5312 15.3302 19.5312 14.3229C19.5312 13.3156 18.7156 12.5 17.7083 12.5C17.4689 12.4999 17.2318 12.547 17.0107 12.6386C16.7895 12.7302 16.5885 12.8645 16.4192 13.0338C16.2499 13.2031 16.1156 13.404 16.024 13.6252C15.9325 13.8464 15.8853 14.0835 15.8854 14.3229C15.8854 15.3302 16.701 16.1458 17.7083 16.1458ZM13.5417 19.4604C13.5417 17.949 16.3177 17.1875 17.7083 17.1875C19.099 17.1875 21.875 17.949 21.875 19.4604V21.875H8.85417C8.19219 21.875 7.65729 21.6214 7.29323 21.212C6.9375 20.812 6.77083 20.2932 6.77083 19.7917V17.924L5.05573 19.6391L4.31927 18.9026L6.92344 16.2984L7.29167 15.9302L7.6599 16.2984L10.2641 18.9026L9.5276 19.6391L7.8125 17.924V19.7917C7.8125 20.0714 7.90625 20.3339 8.07135 20.5198C8.22812 20.6964 8.47448 20.8333 8.85417 20.8333H13.5417V19.4604ZM6.77083 3.125C6.49457 3.125 6.22961 3.23475 6.03426 3.4301C5.83891 3.62545 5.72917 3.8904 5.72917 4.16667V4.6875H3.125V14.5833H14.5833V4.6875H11.9792V4.16667C11.9792 3.8904 11.8694 3.62545 11.6741 3.4301C11.4787 3.23475 11.2138 3.125 10.9375 3.125H6.77083ZM4.16667 5.72917H5.72917V6.77083H4.16667V5.72917ZM4.16667 7.8125H5.72917V8.33333C5.72917 8.6096 5.83891 8.87455 6.03426 9.0699C6.22961 9.26525 6.49457 9.375 6.77083 9.375H10.9375C11.2138 9.375 11.4787 9.26525 11.6741 9.0699C11.8694 8.87455 11.9792 8.6096 11.9792 8.33333V7.8125H13.5417V13.5417H10.9375V10.4167H6.77083V13.5417H4.16667V7.8125ZM13.5417 6.77083H11.9792V5.72917H13.5417V6.77083ZM9.89583 11.4583V13.5417H7.8125V11.4583H9.89583ZM8.33333 4.16667V5.72917H6.77083V6.77083H8.33333V8.33333H9.375V6.77083H10.9375V5.72917H9.375V4.16667H8.33333Z" fill="#FC3E03"/>
</g>
<defs>
<clipPath id="clip0_372_2782">
<rect width="25" height="25" fill="white"/>
</clipPath>
</defs>
</svg>
