<svg width="19" height="19" viewBox="0 0 19 19" fill="none" xmlns="http://www.w3.org/2000/svg">
<path d="M2.96875 1.1875C2.96875 1.78125 2.96875 2.96875 4.15625 3.5625H6.07202L5.47827 1.1875H2.96875ZM6.39673 1.1875L6.99048 3.5625H9.05469V1.1875H6.39673ZM9.94531 1.1875V3.5625H12.0095L12.6033 1.1875H9.94531ZM13.5217 1.1875L12.928 3.5625H14.8438C16.0312 2.96875 16.0312 1.78125 16.0312 1.1875H13.5217ZM4.15625 4.45312L4.06927 6.0929C6.42231 6.15108 8.90625 6.67791 8.90625 9.5C8.90625 10.2915 8.62221 10.8637 8.37164 11.214L9.5 12.0605L10.6284 11.214C10.3778 10.8631 10.0938 10.2915 10.0938 9.5C10.0938 6.67791 12.5777 6.15108 14.9307 6.0929L14.8438 4.45312H4.15625ZM4.02289 6.98352L3.82343 10.7478C5.02933 11.0055 5.9375 12.0775 5.9375 13.3594C5.9375 14.7256 4.90339 15.8426 3.57874 15.9999C3.68205 17.0111 4.52825 17.8125 5.578 17.8125H13.422C14.4717 17.8125 15.3185 17.0105 15.4213 15.9988C14.0966 15.842 13.0625 14.7256 13.0625 13.3594C13.0625 12.0775 13.9707 11.0055 15.1766 10.7478L14.9771 6.98352C12.1152 7.05121 10.9844 7.77456 10.9844 9.5C10.9844 10.447 11.5536 10.9286 11.5596 10.9333C11.787 11.115 11.7807 11.4639 11.548 11.6384L9.76672 12.9744C9.60879 13.0925 9.3924 13.0937 9.23328 12.9744L7.45203 11.6384C7.21987 11.4645 7.21302 11.1156 7.44043 10.9333C7.46062 10.9161 8.01562 10.4429 8.01562 9.5C8.01562 7.77456 6.88476 7.05121 4.02289 6.98352ZM5.9375 8.3125C6.59359 8.3125 7.125 8.7115 7.125 9.20312C7.125 9.69475 6.59359 10.0938 5.9375 10.0938C5.28141 10.0938 4.75 9.69475 4.75 9.20312C4.75 8.7115 5.28141 8.3125 5.9375 8.3125ZM13.0625 8.3125C13.7186 8.3125 14.25 8.7115 14.25 9.20312C14.25 9.69475 13.7186 10.0938 13.0625 10.0938C12.4064 10.0938 11.875 9.69475 11.875 9.20312C11.875 8.7115 12.4064 8.3125 13.0625 8.3125ZM3.77472 11.6616L3.59265 15.107C4.41915 14.9526 5.04688 14.2292 5.04688 13.3594C5.04688 12.5554 4.508 11.8825 3.77472 11.6616ZM15.2253 11.6616C14.492 11.8825 13.9531 12.5554 13.9531 13.3594C13.9531 14.2292 14.5808 14.9526 15.4073 15.107L15.2253 11.6616ZM8.76477 13.6562C8.98565 13.6562 9.27912 14.25 9.5 14.25C9.72087 14.25 10.0144 13.6562 10.2352 13.6562C10.6877 13.6562 11.2813 13.6564 11.8727 14.5909C10.2951 14.718 8.70491 14.718 7.12732 14.5909C7.71869 13.6564 8.31233 13.6562 8.76477 13.6562ZM7.25372 15.1951C8.00125 15.2509 8.7495 15.2879 9.5 15.2879C10.2505 15.2879 10.9987 15.2509 11.7463 15.1951C11.2713 15.5454 10.4458 16.0312 9.5 16.0312C8.55416 16.0312 7.72872 15.5454 7.25372 15.1951Z" fill="url(#paint0_linear_577_2701)"/>
<circle cx="16" cy="2" r="2" fill="#9A5108"/>
<path d="M16 1V3" stroke="white" stroke-width="0.5"/>
<defs>
<linearGradient id="paint0_linear_577_2701" x1="3.04" y1="1.14" x2="15.96" y2="17.86" gradientUnits="userSpaceOnUse">
<stop stop-color="#DE9853"/>
<stop offset="1" stop-color="#934900"/>
</linearGradient>
</defs>
</svg>
