<svg width="25" height="25" viewBox="0 0 25 25" fill="none" xmlns="http://www.w3.org/2000/svg">
<path d="M17.1817 3.7395C15.1664 3.7395 13.4443 5.17604 12.4981 6.16643C11.5519 5.17604 9.83367 3.7395 7.81925 3.7395C4.34713 3.7395 1.9231 6.15969 1.9231 9.62412C1.9231 13.4414 4.93367 15.9087 7.84617 18.2953C9.22117 19.4232 10.6442 20.5885 11.7356 21.8808C11.9192 22.0972 12.1885 22.2222 12.4712 22.2222H12.5269C12.8106 22.2222 13.0789 22.0962 13.2616 21.8808C14.3548 20.5885 15.7769 19.4222 17.1529 18.2953C20.0644 15.9097 23.0769 13.4424 23.0769 9.62412C23.0769 6.15969 20.6529 3.7395 17.1817 3.7395Z" fill="#FC3E03"/>
</svg>
