<svg width="30" height="30" viewBox="0 0 30 30" fill="none" xmlns="http://www.w3.org/2000/svg">
<path fill-rule="evenodd" clip-rule="evenodd" d="M5.78937 3.75C5.55312 3.75 5.3425 3.91375 5.26125 4.16L3.81875 8.54187C3.7732 8.68045 3.75 8.82538 3.75 8.97125V10.7144C3.75 11.7 4.46938 12.5 5.35688 12.5C6.24437 12.5 6.96437 11.7 6.96437 10.7144C6.96437 11.7006 7.68375 12.5 8.57125 12.5C9.45875 12.5 10.1787 11.7 10.1787 10.7144C10.1787 11.7006 10.8981 12.5 11.7856 12.5C12.6731 12.5 13.3919 11.7013 13.3931 10.7156C13.3931 11.7013 14.1125 12.5 15 12.5C15.8875 12.5 16.6069 11.7 16.6069 10.7144C16.6069 11.7006 17.3269 12.5 18.2144 12.5C19.1019 12.5 19.8206 11.7013 19.8213 10.7156C19.8219 11.7013 20.5413 12.5 21.4287 12.5C22.3162 12.5 23.0356 11.7 23.0356 10.7144C23.0356 11.7006 23.755 12.5 24.6431 12.5C25.5306 12.5 26.25 11.7 26.25 10.7144V8.97125C26.25 8.82538 26.2268 8.68045 26.1812 8.54187L24.7388 4.16063C24.6575 3.91375 24.4469 3.75 24.2106 3.75H5.78937Z" fill="#FC3E03"/>
<path fill-rule="evenodd" clip-rule="evenodd" d="M6.25 13.2687V18.125H4.6875C4.60462 18.125 4.52513 18.1579 4.46653 18.2165C4.40792 18.2751 4.375 18.3546 4.375 18.4375V19.0625C4.375 19.1454 4.40792 19.2249 4.46653 19.2835C4.52513 19.3421 4.60462 19.375 4.6875 19.375H25.3125C25.3954 19.375 25.4749 19.3421 25.5335 19.2835C25.5921 19.2249 25.625 19.1454 25.625 19.0625V18.4375C25.625 18.3546 25.5921 18.2751 25.5335 18.2165C25.4749 18.1579 25.3954 18.125 25.3125 18.125H23.75V13.2687C23.4884 13.1645 23.2467 13.0158 23.0356 12.8294C22.8736 12.9723 22.6935 13.0933 22.5 13.1894V18.125H7.5V13.1894C7.30649 13.0933 7.12641 12.9723 6.96437 12.8294C6.75437 13.0138 6.51437 13.1637 6.25 13.2687ZM22.5 12.0456C22.5531 11.9925 22.6031 11.9356 22.65 11.875H22.5V12.0456ZM23.4212 11.875C23.5157 11.9974 23.6263 12.1065 23.75 12.1994V11.875H23.4212ZM6.25 12.1994C6.3743 12.1073 6.48498 11.9981 6.57875 11.875H6.25V12.1994ZM7.35 11.875H7.5V12.0456C7.44631 11.9921 7.3962 11.9351 7.35 11.875ZM5.3125 20.625C5.22962 20.625 5.15013 20.6579 5.09153 20.7165C5.03292 20.7751 5 20.8546 5 20.9375V25.625C5 25.7908 5.06585 25.9497 5.18306 26.0669C5.30027 26.1842 5.45924 26.25 5.625 26.25H24.375C24.5408 26.25 24.6997 26.1842 24.8169 26.0669C24.9342 25.9497 25 25.7908 25 25.625V20.9375C25 20.8546 24.9671 20.7751 24.9085 20.7165C24.8499 20.6579 24.7704 20.625 24.6875 20.625H5.3125Z" fill="#FC3E03"/>
<path d="M10.9375 16.25H9.0625C8.88991 16.25 8.75 16.3899 8.75 16.5625V17.8125C8.75 17.9851 8.88991 18.125 9.0625 18.125H10.9375C11.1101 18.125 11.25 17.9851 11.25 17.8125V16.5625C11.25 16.3899 11.1101 16.25 10.9375 16.25Z" fill="#FC3E03"/>
<path d="M12.1875 16.875H10.3125C10.1399 16.875 10 17.0149 10 17.1875V17.8125C10 17.9851 10.1399 18.125 10.3125 18.125H12.1875C12.3601 18.125 12.5 17.9851 12.5 17.8125V17.1875C12.5 17.0149 12.3601 16.875 12.1875 16.875Z" fill="#FC3E03"/>
<path d="M14.0625 18.125C14.5803 18.125 15 17.7053 15 17.1875C15 16.6697 14.5803 16.25 14.0625 16.25C13.5447 16.25 13.125 16.6697 13.125 17.1875C13.125 17.7053 13.5447 18.125 14.0625 18.125Z" fill="#FC3E03"/>
</svg>
