<svg width="30" height="30" viewBox="0 0 30 30" fill="none" xmlns="http://www.w3.org/2000/svg">
<path d="M25 25H8.75C8.08696 25 7.45107 24.7366 6.98223 24.2678C6.51339 23.7989 6.25 23.163 6.25 22.5V11.175L2.7875 7.05C2.6125 6.8375 2.5 6.55 2.5 6.25C2.5 5.91848 2.6317 5.60054 2.86612 5.36612C3.10054 5.1317 3.41848 5 3.75 5H25C25.663 5 26.2989 5.26339 26.7678 5.73223C27.2366 6.20107 27.5 6.83696 27.5 7.5V22.5C27.5 23.163 27.2366 23.7989 26.7678 24.2678C26.2989 24.7366 25.663 25 25 25ZM10.625 8.75C10.4592 8.75 10.3003 8.81585 10.1831 8.93306C10.0658 9.05027 10 9.20924 10 9.375V10.625C10 10.7908 10.0658 10.9497 10.1831 11.0669C10.3003 11.1842 10.4592 11.25 10.625 11.25H23.125C23.2908 11.25 23.4497 11.1842 23.5669 11.0669C23.6842 10.9497 23.75 10.7908 23.75 10.625V9.375C23.75 9.20924 23.6842 9.05027 23.5669 8.93306C23.4497 8.81585 23.2908 8.75 23.125 8.75H10.625ZM10.625 13.75C10.4592 13.75 10.3003 13.8158 10.1831 13.9331C10.0658 14.0503 10 14.2092 10 14.375V15.625C10 15.7908 10.0658 15.9497 10.1831 16.0669C10.3003 16.1842 10.4592 16.25 10.625 16.25H23.125C23.2908 16.25 23.4497 16.1842 23.5669 16.0669C23.6842 15.9497 23.75 15.7908 23.75 15.625V14.375C23.75 14.2092 23.6842 14.0503 23.5669 13.9331C23.4497 13.8158 23.2908 13.75 23.125 13.75H10.625ZM10.625 18.75C10.4592 18.75 10.3003 18.8158 10.1831 18.9331C10.0658 19.0503 10 19.2092 10 19.375V20.625C10 20.7908 10.0658 20.9497 10.1831 21.0669C10.3003 21.1842 10.4592 21.25 10.625 21.25H16.875C17.0408 21.25 17.1997 21.1842 17.3169 21.0669C17.4342 20.9497 17.5 20.7908 17.5 20.625V19.375C17.5 19.2092 17.4342 19.0503 17.3169 18.9331C17.1997 18.8158 17.0408 18.75 16.875 18.75H10.625Z" fill="#FC3E03"/>
</svg>
