<svg width="16" height="16" viewBox="0 0 16 16" fill="none" xmlns="http://www.w3.org/2000/svg">
<g clip-path="url(#clip0_1849_1678)">
<path d="M7.99995 15.2355C8.27992 15.2291 8.54859 15.1238 8.75844 14.9384C8.96828 14.7529 9.10578 14.4992 9.14662 14.2222H6.80884C6.85083 14.5068 6.99476 14.7664 7.21386 14.9528C7.43296 15.1392 7.71232 15.2397 7.99995 15.2355Z" fill="#2A2A2A"/>
<path d="M14.6 12.5022L14.4489 12.3688C14.0202 11.9869 13.645 11.5488 13.3334 11.0666C12.993 10.4011 12.789 9.67425 12.7334 8.92882V6.73326C12.7316 6.46657 12.7078 6.20049 12.6623 5.93771C11.9094 5.78297 11.2332 5.37283 10.748 4.77672C10.2629 4.18061 9.99864 3.43517 10 2.6666V2.3866C9.536 2.15824 9.03744 2.00807 8.52448 1.94215V1.38215C8.52448 1.22479 8.46197 1.07387 8.3507 0.962602C8.23942 0.85133 8.08851 0.788818 7.93115 0.788818C7.77378 0.788818 7.62287 0.85133 7.5116 0.962602C7.40032 1.07387 7.33781 1.22479 7.33781 1.38215V1.96437C6.18924 2.1264 5.13807 2.69848 4.37836 3.57501C3.61864 4.45154 3.20169 5.57332 3.20448 6.73326V8.92882C3.14882 9.67425 2.94483 10.4011 2.60448 11.0666C2.29821 11.5476 1.92901 11.9856 1.5067 12.3688L1.35559 12.5022V13.7555H14.6V12.5022Z" fill="#2A2A2A"/>
<path d="M13.3333 4.88878C14.5606 4.88878 15.5555 3.89386 15.5555 2.66656C15.5555 1.43926 14.5606 0.444336 13.3333 0.444336C12.106 0.444336 11.1111 1.43926 11.1111 2.66656C11.1111 3.89386 12.106 4.88878 13.3333 4.88878Z" fill="#FF685B"/>
</g>
<defs>
<clipPath id="clip0_1849_1678">
<rect width="16" height="16" fill="white"/>
</clipPath>
</defs>
</svg>
