<svg width="25" height="25" viewBox="0 0 25 25" fill="none" xmlns="http://www.w3.org/2000/svg">
<path d="M3.125 12.5C3.125 14.2229 4.52708 15.625 6.25 15.625C7.07708 15.625 7.825 15.2969 8.38437 14.7708L14.625 18.3375C14.6062 18.4729 14.5833 18.6083 14.5833 18.75C14.5833 20.4729 15.9854 21.875 17.7083 21.875C19.4312 21.875 20.8333 20.4729 20.8333 18.75C20.8333 17.0271 19.4312 15.625 17.7083 15.625C16.8812 15.625 16.1333 15.9531 15.574 16.4792L9.33333 12.9135C9.35208 12.7771 9.375 12.6417 9.375 12.5C9.375 12.3583 9.35208 12.2229 9.33333 12.0865L15.574 8.52083C16.1333 9.04688 16.8812 9.375 17.7083 9.375C19.4312 9.375 20.8333 7.97292 20.8333 6.25C20.8333 4.52708 19.4312 3.125 17.7083 3.125C15.9854 3.125 14.5833 4.52708 14.5833 6.25C14.5833 6.39167 14.6062 6.52708 14.625 6.66354L8.38437 10.2292C7.80834 9.68196 7.04452 9.37628 6.25 9.375C4.52708 9.375 3.125 10.7771 3.125 12.5Z" fill="#2A2A2A"/>
</svg>
