<svg width="20" height="20" viewBox="0 0 20 20" fill="none" xmlns="http://www.w3.org/2000/svg">
<path d="M3.74996 7.12663C3.74996 8.78913 5.00413 10.0433 6.66663 10.0433C8.32913 10.0433 9.58329 8.78913 9.58329 7.12663C9.58329 5.46413 8.32913 4.20996 6.66663 4.20996C5.00413 4.20996 3.74996 5.46413 3.74996 7.12663ZM15.8333 6.66663H14.1666V9.16663H11.6666V10.8333H14.1666V13.3333H15.8333V10.8333H18.3333V9.16663H15.8333V6.66663ZM3.33329 15.8333H11.6666V15C11.6666 12.7025 9.79746 10.8333 7.49996 10.8333H5.83329C3.53579 10.8333 1.66663 12.7025 1.66663 15V15.8333H3.33329Z" fill="#FC3E03"/>
</svg>
